HIERARCHY
ROOT Hips
{
  OFFSET 7.333 -26.027 -164.856
  CHANNELS 6 Xposition Yposition Zposition Zrotation Xrotation Yrotation
  JOINT LeftUpLeg
  {
    OFFSET 10.092 0.000 0.000
    CHANNELS 3 Zrotation Xrotation Yrotation
    JOINT LeftLeg
    {
      OFFSET 0.000 -38.160 -0.000
    CHANNELS 3 Zrotation Xrotation Yrotation
      JOINT LeftFoot
      {
        OFFSET -0.000 -24.040 0.000
    CHANNELS 3 Zrotation Xrotation Yrotation
        End Site
        {
          OFFSET -0.000 0.000 12.945
        }
      }
    }
  }
  JOINT RightUpLeg
  {
    OFFSET -10.092 -0.000 0.000
    CHANNELS 3 Zrotation Xrotation Yrotation
    JOINT RightLeg
    {
      OFFSET 0.000 -33.046 0.000
    CHANNELS 3 Zrotation Xrotation Yrotation
      JOINT RightFoot
      {
        OFFSET 0.000 -22.031 -0.000
    CHANNELS 3 Zrotation Xrotation Yrotation
        End Site
        {
          OFFSET 0.000 -0.000 11.863
        }
      }
    }
  }
  JOINT Spine
  {
    OFFSET -0.000 16.511 0.000
    CHANNELS 3 Zrotation Xrotation Yrotation
    JOINT LeftShoulder
    {
      OFFSET 0 16.511 0
    CHANNELS 3 Zrotation Xrotation Yrotation
      JOINT LeftArm
      {
        OFFSET 16.337 0.000 0.000
    CHANNELS 3 Zrotation Xrotation Yrotation
        JOINT LeftForeArm
        {
          OFFSET 0.000 -24.030 0.000
    CHANNELS 3 Zrotation Xrotation Yrotation
          JOINT LeftHand
          {
            OFFSET 0.000 -17.629 -0.000
    CHANNELS 3 Zrotation Xrotation Yrotation
            End Site
            {
              OFFSET 0.000 -11.753 -0.000
            }
          }
        }
      }
    }
    JOINT RightShoulder
    {
      OFFSET 0 16.511 0
    CHANNELS 3 Zrotation Xrotation Yrotation
      JOINT RightArm
      {
        OFFSET -16.337 0.000 0.000
    CHANNELS 3 Zrotation Xrotation Yrotation
        JOINT RightForeArm
        {
          OFFSET -0.000 -19.534 0.000
    CHANNELS 3 Zrotation Xrotation Yrotation
          JOINT RightHand
          {
            OFFSET 0.000 -19.514 -0.000
    CHANNELS 3 Zrotation Xrotation Yrotation
            End Site
            {
              OFFSET 0.000 -13.010 -0.000
            }
          }
        }
      }
    }
    JOINT Neck
    {
      OFFSET -0.000 16.511 0.000
    CHANNELS 3 Zrotation Xrotation Yrotation
      JOINT Head
      {
        OFFSET -0.000 12.493 -0.000
    CHANNELS 3 Zrotation Xrotation Yrotation
        End Site
        {
          OFFSET -0.000 8.328 -0.000
        }
      }
    }
  }
}
MOTION
Frames: 12
Frame Time: 0.0333333
0 0 0 -1.033930e+00 -1.092890e+01 -6.690890e-01 3.036350e+00 2.993690e+01 -1.516340e+00 -5.138190e+00 -1.463420e+01 -6.338370e-01 0 0 0 3.795650e+00 3.278650e+01 -2.057500e+00 9.959350e-01 -2.432920e+01 1.727190e+00 0 0 0 1.000000e-06 2.000000e-06 0 0 0 0 -1.860770e+01 -3.985040e+01 -1.203690e+02 9.991620e+01 -1.697040e+01 1.087310e+02 1.000000e-06 -1.000000e-06 1.000000e-06 0 0 0 -1.810210e+00 -1.690860e+01 8.698490e+01 -1.235090e+02 -3.942240e+01 -1.398670e+02 0 -1.000000e-06 0 2.826610e-01 -9.160010e-01 4.519000e-03 0 -3.308722e-24 -1.000000e-06 
0 0 0 7.367200e-02 -9.824160e+00 -4.815400e-02 8.150090e-01 2.859640e+01 -3.901050e-01 -4.353260e+00 -1.415870e+01 -8.909360e-01 0 0 0 1.667380e+00 3.131400e+01 -8.667520e-01 1.469550e+00 -2.419420e+01 1.186880e+00 0 0 0 -1.000000e-06 3.900000e-05 -1.400000e-05 0 0 0 -2.542130e+01 -3.987390e+01 -1.298110e+02 9.747310e+01 -1.460720e+01 1.026480e+02 0 -1.000000e-06 0 0 0 0 -5.893730e+00 -1.461380e+01 7.512250e+01 -1.318320e+02 -5.063520e+01 -1.427370e+02 -1.000000e-06 -1.000000e-06 0 1.858340e-01 -6.965380e-01 2.259000e-03 0 -3.308722e-24 1.000000e-06 
0 0 0 4.328120e-01 -9.603189e+00 1.888696e-01 -4.993940e-01 2.763650e+01 2.316580e-01 -3.723738e+00 -1.307690e+01 -9.441380e-01 0 1.598874e-08 0 8.544920e-01 3.140680e+01 -4.453290e-01 1.413366e+00 -2.518319e+01 9.121843e-01 0 0 0 -1.324290e-07 -2.640502e-08 -2.454974e-05 0 0 0 -2.319707e+01 -3.745796e+01 -1.285924e+02 9.959039e+01 -1.416513e+01 1.130342e+02 -7.788078e-07 -8.110285e-07 4.857732e-07 0 0 0 -6.882773e+00 -1.318987e+01 7.128115e+01 -1.353102e+02 -5.137126e+01 -1.460086e+02 -2.345950e-07 7.204139e-07 3.555838e-08 4.042635e-02 -9.688487e-01 7.519649e-04 0 2.625191e-08 0 
0 0 0 9.839132e-01 -9.042180e+00 2.128729e+00 2.162515e-02 2.761230e+01 -1.055175e-02 -4.370445e+00 -1.385207e+01 -1.045520e+00 0 2.094638e-08 0 1.049290e+00 3.075124e+01 -5.363209e-01 1.150642e+00 -2.420799e+01 8.401349e-01 0 0 0 -7.577463e-07 -8.821095e-07 3.173803e-05 0 0 0 -1.951354e+01 -3.874112e+01 -1.219971e+02 1.034170e+02 -1.492291e+01 1.237379e+02 NaN -1.279371e-07 NaN 0 0 0 -5.096669e+00 -1.594301e+01 7.735219e+01 -1.296540e+02 -4.049082e+01 -1.457400e+02 NaN NaN 4.868411e-09 3.187583e-01 -9.139166e-01 5.002339e-03 0 9.340104e-10 -9.585426e-07 
0 0 0 1.234460e+00 -8.156098e+00 3.622722e+00 -1.683041e-01 2.547978e+01 7.207319e-02 -4.375055e+00 -1.230583e+01 -9.667350e-01 0 1.066508e-08 0 9.650032e-01 3.074394e+01 -4.938381e-01 8.948783e-01 -2.636556e+01 7.677889e-01 0 0 0 -9.659285e-07 1.102952e-06 -2.457991e-05 0 0 0 -1.246709e+01 -3.948781e+01 -1.102746e+02 1.081634e+02 -1.575101e+01 1.325293e+02 NaN 1.493641e-07 NaN 0 0 0 -5.069780e+00 -2.653029e+01 8.096639e+01 -1.220069e+02 -2.857069e+01 -1.471794e+02 NaN NaN 3.804897e-07 2.086934e-01 -9.068859e-01 4.318611e-03 0 1.941263e-09 -2.564364e-08 
0 0 0 7.125560e-01 -7.673822e+00 3.092530e+00 -3.452240e-01 2.370350e+01 1.390136e-01 -3.670720e+00 -1.095290e+01 -7.586860e-01 0 3.809524e-08 0 6.121580e-01 2.919440e+01 -2.985540e-01 2.282610e+00 -2.514150e+01 1.197570e+00 0 0 0 NaN 1.991999e-05 -6.985662e-05 0 0 0 3.233736e+00 -3.950514e+01 -8.303763e+01 1.130853e+02 -2.224091e+01 1.295541e+02 4.717689e-08 NaN 1.993171e-07 0 0 0 -1.325798e+01 -3.282860e+01 6.984015e+01 -1.206320e+02 -2.284150e+01 -1.519591e+02 -1.518308e-07 6.992392e-09 NaN 1.570733e-01 -2.217967e-02 1.018881e-03 0 -2.368457e-08 -1.589598e-07 
0 0 0 5.443120e-01 -7.835724e+00 1.143430e+00 -1.009014e+00 2.286770e+01 3.926102e-01 -2.718507e+00 -1.020840e+01 -6.472290e-01 0 1.585485e-08 0 3.764873e-01 2.763290e+01 -1.710877e-01 2.486670e+00 -2.328670e+01 1.113260e+00 0 0 0 -7.997813e-07 NaN -9.200000e-05 0 0 0 2.134572e+01 -3.642068e+01 -5.168362e+01 1.136835e+02 -2.543720e+01 1.260715e+02 -1.598189e-08 1.463831e-07 NaN 0 0 0 -2.618933e+01 -3.185473e+01 5.240837e+01 -1.199985e+02 -1.762302e+01 -1.590987e+02 -9.287040e-08 6.181628e-07 NaN 1.059769e-01 1.038975e+00 7.856851e-04 0 -2.241490e-08 NaN 
0 0 0 2.651407e-01 -7.955099e+00 1.415120e-01 -5.870380e-01 2.265267e+01 2.261004e-01 -3.028950e+00 -9.533096e+00 -5.917800e-01 0 1.394189e-08 0 4.217932e-01 2.716886e+01 -1.923319e-01 2.982392e+00 -2.244100e+01 1.283549e+00 0 0 0 -6.148588e-07 NaN -2.900000e-05 0 0 0 3.341257e+01 -2.964879e+01 -3.001849e+01 1.097413e+02 -2.419846e+01 1.210906e+02 -2.912949e-08 1.577978e-07 NaN 0 0 0 -3.616570e+01 -2.266142e+01 3.510846e+01 -1.185078e+02 -1.233449e+01 -1.643852e+02 NaN NaN 1.830783e-08 -1.171227e-01 1.334752e+00 2.117770e-03 0 -1.136612e-08 NaN 
0 0 0 8.343480e-01 -8.164915e+00 -8.561010e-01 -1.184235e+00 2.340390e+01 4.788465e-01 -3.536476e+00 -1.026085e+01 -8.092314e-01 0 2.043798e-08 0 -2.563477e-01 2.694610e+01 1.240226e-01 2.678098e+00 -2.203890e+01 8.962216e-01 0 0 0 NaN 1.698515e-06 4.600000e-05 0 0 0 3.876910e+01 -1.642444e+01 -1.127302e+01 1.039155e+02 -2.634830e+01 1.115060e+02 -4.283407e-08 NaN 2.310791e-07 0 0 0 -4.073760e+01 -1.389830e+01 2.381638e+01 -1.133278e+02 -7.351662e+00 -1.600049e+02 NaN NaN 2.014565e-07 -1.388552e-01 1.598560e+00 1.289298e-03 0 -2.712354e-08 2.721746e-08 
0 0 0 7.684880e-01 -7.840225e+00 -1.385800e+00 -1.675566e+00 2.314217e+01 6.836431e-01 -2.906410e+00 -1.013547e+01 -7.942000e-01 0 3.133556e-08 0 -5.139960e-01 2.682405e+01 2.324432e-01 2.357375e+00 -2.226782e+01 7.202020e-01 0 0 0 NaN -3.202908e-06 -3.600968e-05 0 0 0 4.011468e+01 -5.336806e+00 2.342079e+00 9.577339e+01 -2.871759e+01 9.835131e+01 -1.875715e-08 NaN NaN 0 0 0 -4.103350e+01 -3.941390e+00 1.349852e+01 -1.079083e+02 -6.310061e+00 -1.506314e+02 -2.831823e-07 -3.933894e-08 NaN -5.059964e-01 1.776480e+00 5.147178e-04 0 -2.703530e-08 4.790055e-08 
0 0 0 1.188100e+00 -7.594577e+00 -1.152060e+00 -1.745010e+00 2.277885e+01 6.735599e-01 -3.423120e+00 -9.939184e+00 -8.454024e-01 0 2.846975e-08 0 -3.898504e-01 2.651110e+01 1.752633e-01 1.612997e+00 -2.229656e+01 4.789510e-01 0 0 0 -2.601517e-07 -1.899220e-06 -9.940460e-07 0 0 0 3.843507e+01 3.252434e+00 1.278290e+01 8.555059e+01 -3.111422e+01 8.224070e+01 -4.021425e-08 -4.860964e-07 NaN 0 0 0 -3.950130e+01 5.584995e+00 2.516402e+00 -1.044367e+02 -1.149205e+01 -1.477222e+02 NaN 1.488513e-07 NaN -4.003760e-01 1.662338e+00 6.890466e-04 0 -1.572541e-08 7.108506e-08 
0 0 0 1.138020e+00 -7.799402e+00 -7.062220e-01 -2.271731e+00 2.339160e+01 9.305785e-01 -2.199488e+00 -1.060470e+01 -8.108540e-01 0 NaN 0 -1.276796e+00 2.681676e+01 5.753102e-01 3.311797e+00 -2.195634e+01 8.122630e-01 0 0 0 -2.006058e-08 6.784932e-07 5.768652e-05 0 0 0 3.602829e+01 9.096210e+00 2.076527e+01 8.010938e+01 -3.551510e+01 7.550290e+01 -4.319769e-08 NaN -1.359474e-07 0 0 0 -3.879721e+01 1.153194e+01 -5.108802e+00 -1.016361e+02 -1.658942e+01 -1.495394e+02 NaN NaN 7.470130e-08 -3.480000e-04 1.565159e+00 3.713625e-05 0 -2.173005e-08 8.109864e-08 
